<svg xmlns="http://www.w3.org/2000/svg" xml:space="preserve" width="1500" height="1500" data-id="lg_eNmlG3DKVK4JTLlLYq" data-version="1" viewBox="0 0 1500 1500"><path fill="#122023" stroke="transparent" d="M0 0h1500v1500H0z"/><g data-padding="20"><g transform="translate(-571.429 -583.036)scale(1.72194)"><rect width="344.174" height="118.65" x="194.547" y="314.823" fill="none" rx="0" ry="0" transform="translate(508.41 412.29)"/><path fill="#fff" d="M734.424 820.278q-5.88 0-11.37-1.83-5.48-1.84-9.58-5.25-4.09-3.42-5.77-8.14l6.87-2.57q1.16 3.25 4.23 5.59 3.07 2.33 7.19 3.59t8.43 1.26q5.04 0 9.4-1.68 4.35-1.68 7.03-4.69 2.68-3.02 2.68-7.12 0-4.15-2.78-6.82-2.79-2.68-7.17-4.23t-9.16-2.39q-7.51-1.31-13.47-3.57t-9.42-6.38q-3.47-4.12-3.47-10.89 0-6.35 3.68-11.03 3.67-4.67 9.68-7.24 6.02-2.57 13-2.57 5.72 0 11.18 1.78 5.46 1.79 9.63 5.2 4.18 3.41 6.02 8.35l-6.99 2.52q-1.15-3.31-4.22-5.65-3.07-2.33-7.17-3.57-4.09-1.23-8.45-1.23-4.99-.05-9.32 1.65-4.33 1.71-7.01 4.73t-2.68 7.06q0 4.72 2.5 7.27 2.49 2.55 6.8 3.81 4.3 1.26 9.71 2.25 7.03 1.21 13.07 3.76 6.04 2.54 9.71 6.77 3.68 4.23 3.68 10.42 0 6.3-3.68 11-3.67 4.7-9.68 7.27t-13.1 2.57m61.49 0q-7.25 0-13.21-3.72-5.96-3.73-9.5-10-3.54-6.28-3.54-13.89 0-5.78 2.04-10.79 2.05-5.01 5.65-8.82 3.59-3.81 8.37-5.96t10.19-2.15q7.24 0 13.2 3.73 5.96 3.72 9.5 10.02 3.55 6.3 3.55 13.97 0 5.72-2.05 10.71t-5.65 8.79q-3.59 3.81-8.34 5.96t-10.21 2.15m0-7.35q5.35 0 9.63-2.8 4.28-2.81 6.77-7.43 2.5-4.62 2.5-10.03 0-5.51-2.52-10.16t-6.8-7.43-9.58-2.78q-5.36 0-9.64 2.81t-6.77 7.43-2.49 10.13q0 5.67 2.57 10.26 2.57 4.6 6.88 7.3 4.3 2.7 9.45 2.7m46.56-60.2v13.7h15.75v7.35h-15.75v45.15h-7.35v-45.15h-7.19v-7.35h7.19v-13.7q0-3.84 1.87-6.96 1.86-3.12 5.01-4.99 3.15-1.86 6.98-1.86 2.79 0 5.38 1.1 2.6 1.1 4.65 3.26l-5.25 5.19q-.84-1.05-2.13-1.62-1.28-.58-2.65-.58-2.67 0-4.59 1.89t-1.92 4.57m24.14 66.19v-52.5h7.35v52.5Zm3.73-61.69q-1.78 0-3.02-1.18-1.23-1.18-1.23-2.97 0-1.78 1.23-2.96 1.24-1.18 3.02-1.18 1.73 0 2.97 1.18 1.23 1.18 1.23 2.96 0 1.79-1.21 2.97-1.2 1.18-2.99 1.18m36.66 51.57 15.54-42.37h7.77l-28.72 78.75h-7.82l9.55-26.25-18.85-52.5h8.04Zm77.21-32.56-.26-9.82h7.35v52.5h-7.35l-.26-9.77q-2.57 4.99-7.19 8.06t-11.03 3.07q-5.77 0-10.81-2.17-5.04-2.18-8.88-6.02-3.83-3.83-5.98-8.87t-2.15-10.81q0-5.67 2.12-10.66 2.13-4.99 5.88-8.77 3.76-3.78 8.72-5.9 4.96-2.13 10.63-2.13 6.56 0 11.44 3.12 4.89 3.13 7.77 8.17m-18.9 36.9q5.62 0 9.66-2.75 4.05-2.76 6.22-7.43 2.18-4.67 2.18-10.29 0-5.78-2.2-10.42-2.21-4.65-6.25-7.38t-9.61-2.73q-5.56 0-10.16 2.76-4.59 2.75-7.29 7.43-2.71 4.67-2.71 10.34 0 5.72 2.79 10.37 2.78 4.64 7.37 7.37 4.6 2.73 10 2.73m82.28-26.71v32.5h-7.35v-31.03q0-4.3-2.1-7.82t-5.62-5.62q-3.51-2.1-7.82-2.1-4.25 0-7.8 2.1-3.54 2.1-5.64 5.62t-2.1 7.82v31.03h-7.35v-52.5h7.35v7.24q2.78-3.99 7.25-6.35 4.46-2.36 9.71-2.36 5.93 0 10.81 2.89 4.89 2.88 7.77 7.77 2.89 4.88 2.89 10.81"/><path fill="#2ecc40" fill-rule="evenodd" d="m570.127 691.132.103-.051.051-.026.078-.078.051-.051q0-.052.052-.078v-.103l.026-.026v-.077l.026-.052v-.103l.025-.051v-.155l.026-.13.103-.077-.077-.051v.129l-1.47 1.11Zm.567-1.083c1.006.36 1.316-.568 1.806-1.161l.13-.104.128-.13Zm34.572 136.74c23.556-27.968 38.313-59.83 41.332-96.621a74.8 74.8 0 0 0-3.767-32.121c-1.238-3.406-2.27-7.044-5.315-9.443q-5.108-4.128-11.016-7.121a46.44 46.44 0 0 0-26.936-4.876c-9.184 1.135-17.157 5.005-24.51 10.397l-.103.078c-.258.18-.464.36-.258.748.387.258.645 0 .955-.18 5.47-2.58 11.094-4.774 17.105-5.6 12.487-1.728 23.091 1.6 31.038 11.74 6.656 8.462 9.16 18.447 10.062 28.896.954 10.836.051 21.594-2.477 32.146-9.417 39.216-28.896 71.647-63.417 94.17q-.05-.077 0 .026c1.961.748 3.948 1.42 5.857 2.219 1.161.49 2.064.36 3.173-.258a111 111 0 0 0 28.251-24.175" vector-effect="non-scaling-stroke"/><path fill="#2ecc40" fill-rule="evenodd" d="M589.391 821.628c19.401-23.606 31.398-50.31 33.282-81.09.774-12.305-.723-24.33-7.044-35.242-5.934-10.216-14.757-16.021-26.832-16.46-7.275-.258-14.035 1.677-20.64 4.463-.05-1.857-.903-.877-1.548-.412a121.3 121.3 0 0 0-26.006 24.845 162.5 162.5 0 0 0-27.735 53.329c-2.116 6.966-3.612 14.035-4.722 21.207-.18 1.239.104 1.6 1.394 1.626 5.108.077 5.108.129 5.83-4.902l.181-1.497a175.4 175.4 0 0 1 26.935-65.12 142 142 0 0 1 22.085-26.238c.826.62-.568 1.058-.258 1.626q0 .05.077.129h.465l1.032-.31c6.424-1.78 12.9-2.322 19.401-.645 11.352 2.916 18.19 10.707 22.266 21.26 4.824 12.46 4.8 25.335 2.786 38.287a129 129 0 0 1-19.737 50.568c-9.597 14.706-21.259 27.348-36.945 35.81-.207.129-.516.258-.362.62l.362.206c1.42.516 2.89.954 4.23 1.625 1.652.8 2.942.516 4.542-.387a100.6 100.6 0 0 0 26.96-23.297m35.295 8.178a216.7 216.7 0 0 0 43.963-84.03c.98-3.066.907-6.372-.206-9.392a126.4 126.4 0 0 0-8.566-19.298 173 173 0 0 1-1.883 19.092 188.3 188.3 0 0 1-23.53 63.907c-9.88 16.976-21.827 32.275-37.049 44.892a111 111 0 0 1-14.06 9.752c2.528.955 4.747 1.729 6.914 2.657 1.316.594 2.348.387 3.56-.36a131.6 131.6 0 0 0 30.857-27.22" vector-effect="non-scaling-stroke"/><path fill="#2ecc40" fill-rule="evenodd" d="M577.153 800.447c-.284.516-.62 1.006-.723 1.548a67 67 0 0 1-6.398 19.634c.44-.078.722-.052.851-.155q1.806-1.987 3.535-4.077a121.26 121.26 0 0 0 25.98-57.637c1.807-11.274 1.652-22.523-1.986-33.488-4.98-15.12-16.64-25.413-33.979-23.994-4.334.36-5.882 1.445-7.507 5.934l.154.077 1.084.078c13.726.129 23.065 6.914 28.612 19.169 4.85 10.759 5.212 22.162 3.793 33.643a105.8 105.8 0 0 1-13.416 39.268" vector-effect="non-scaling-stroke"/><path fill="#2ecc40" fill-rule="evenodd" d="M561.122 744.082q.155-.36.181-.62a2.6 2.6 0 0 0-.232-1.031 33.54 33.54 0 0 0-9.133-12.642c-1.342-1.083-3.793-1.47-3.896-3.225-.103-1.6 1.29-3.276 1.883-4.953.361-1.058.774-1.213 1.832-.826q8.824 3.173 13.984 10.99c5.985 9.03 7.43 19.144 6.94 29.697-.052 1.186 0 2.27.413 3.354a72.2 72.2 0 0 1 3.87 16.924c.903-.516.877-1.341 1.083-1.986a87.7 87.7 0 0 0 3.303-14.706c1.367-10.527 1.16-20.976-2.864-31.012-3.922-9.726-10.45-16.77-20.924-19.427-3.74-.955-3.715-.93-5.857 2.244a193.5 193.5 0 0 0-17.08 31.09 178 178 0 0 0-13.235 44.427c-.18 1.213 0 1.548 1.187 1.47a33.5 33.5 0 0 1 4.541 0c1.522.13 1.935-.567 2.141-1.934 1.445-8.876 3.741-17.544 6.373-26.11 2.167-7.07 5.573-13.7 6.914-21.053.645-3.612 1.832-7.07 2.684-10.63.387-1.573.877-1.91 2.425-1.031a51.6 51.6 0 0 1 13.467 10.99m113.701 20.124c-16.538 38.778-38.132 73.17-73.659 97.112 2.735 1.032 5.366 1.96 7.946 3.018 1.032.439 1.806.258 2.735-.361a139.3 139.3 0 0 0 19.866-15.867c18.06-17.286 32.2-37.436 44.092-59.288q.645-1.136.62-2.451a157 157 0 0 0-1.6-22.163m-54.619 104.18c3.174 1.188 6.012 2.142 8.772 3.329 1.394.593 2.374.284 3.535-.516 13.03-9.107 24.175-20.201 34.546-32.121.697-.8 1.032-1.73 1.342-2.683a150 150 0 0 0 5.573-21.208c.154-.825.438-1.728-.104-2.786-14.912 21.543-31.5 41.177-53.664 55.986m-69.97-163.856a100.6 100.6 0 0 0-14.989 11.558 131.6 131.6 0 0 0-29.773 44.48q-6.32 15.222-8.514 31.527c-.052.594-.439 1.626.258 1.729q2.373.387 4.695 0c1.084-.207.774-1.548.878-2.4.8-6.295 2.193-12.461 3.973-18.524q8.488-28.638 27.374-51.832 7.378-8.901 16.1-16.512" vector-effect="non-scaling-stroke"/><path fill="#2ecc40" fill-rule="evenodd" d="m529.818 719.478-.412-.465a25.8 25.8 0 0 0-6.63 4.773 112.23 112.23 0 0 0-35.244 66.177c-.619 4.232-.645 4.18 3.096 4.128 1.084-.051 1.548-.335 1.548-1.444q.103-1.858.465-3.638a121.26 121.26 0 0 1 31.114-63.468q2.967-3.096 6.063-6.09" vector-effect="non-scaling-stroke"/></g><path fill="transparent" stroke="transparent" stroke-width="1.786" d="M250 575h1000v350H250z"/></g></svg>